<svg xmlns="http://www.w3.org/2000/svg" version="1.1" xmlns:xlink="http://www.w3.org/1999/xlink" xmlns:svgjs="http://svgjs.dev/svgjs" width="1000" height="1000" viewBox="0 0 1000 1000"><rect width="1000" height="1000" fill="#000000"></rect><g transform="matrix(0.7,0,0,0.7,149.98929545955065,217.7787044534412)"><svg viewBox="0 0 306 247" data-background-color="#ffffff" preserveAspectRatio="xMidYMid meet" height="807" width="1000" xmlns="http://www.w3.org/2000/svg" xmlns:xlink="http://www.w3.org/1999/xlink"><g id="tight-bounds" transform="matrix(1,0,0,1,0.004679413396445398,-0.09999999999999432)"><svg viewBox="0 0 305.9906175041052 247.2" height="247.2" width="305.9906175041052"><g><svg viewBox="0 0 395.52 319.5279149325167" height="247.2" width="305.9906175041052"><g transform="matrix(1,0,0,1,0,234.47206076864825)"><svg viewBox="0 0 395.52 85.05585416386846" height="85.05585416386846" width="395.52"><g><svg viewBox="0 0 395.52 85.05585416386846" height="85.05585416386846" width="395.52"><g><rect width="75.54432" height="4.973824084021831" y="74.12814202290888" fill="#fce44d" data-fill-palette-color="tertiary"></rect><rect width="75.54432" height="4.973824084021831" y="74.12814202290888" x="319.97568" fill="#fce44d" data-fill-palette-color="tertiary"></rect></g><g><svg viewBox="0 0 395.52 55.15377207062601" height="55.15377207062601" width="395.52"><g transform="matrix(1,0,0,1,0,0)"><svg width="395.52" viewBox="3.0999999046325684 -34.29999923706055 253.72998046875 34.75" height="55.15377207062601" data-palette-color="#f0d10d"><g class="undefined-text-0" data-fill-palette-color="primary" id="text-0"><path d="M3.1 0L3.1-33.85Q3.55-33.85 4.93-33.88 6.3-33.9 7.95-33.9 9.6-33.9 11.15-33.93 12.7-33.95 13.5-33.95L13.5-33.95Q19.85-33.95 23.08-31.58 26.3-29.2 26.3-25.15L26.3-25.15Q26.3-22.6 24.68-20.65 23.05-18.7 19.9-17.65L19.9-17.65Q23.65-16.55 25.48-14.45 27.3-12.35 27.3-9.45L27.3-9.45Q27.3 0.05 12.95 0.05L12.95 0.05Q12.25 0.05 10.83 0.05 9.4 0.05 7.85 0.03 6.3 0 4.98 0 3.65 0 3.1 0L3.1 0ZM11.35-14.4L11.35-5.4 13.8-5.4Q14.8-5.4 15.68-5.6 16.55-5.8 17.2-6.28 17.85-6.75 18.23-7.58 18.6-8.4 18.6-9.65L18.6-9.65Q18.6-10.6 18.35-11.48 18.1-12.35 17.5-13.03 16.9-13.7 15.93-14.1 14.95-14.5 13.55-14.5L13.55-14.5Q12.85-14.5 12.28-14.48 11.7-14.45 11.35-14.4L11.35-14.4ZM11.35-28.45L11.35-19.65 13.65-19.65Q15.2-19.65 16.43-20.6 17.65-21.55 17.65-24.05L17.65-24.05Q17.65-26.15 16.68-27.33 15.7-28.5 13.45-28.5L13.45-28.5Q12.8-28.5 12.23-28.5 11.65-28.5 11.35-28.45L11.35-28.45ZM28.65 0L41.5-33.85 48.85-33.85 61.25 0 52.9 0 50.4-8.15 39.45-8.15 36.85 0 28.65 0ZM41.35-14.25L48.55-14.25Q48.05-15.7 47.52-17.28 47-18.85 46.52-20.35 46.05-21.85 45.65-23.18 45.25-24.5 44.95-25.4L44.95-25.4Q44.65-24.45 44.25-23.13 43.85-21.8 43.37-20.3 42.9-18.8 42.37-17.25 41.85-15.7 41.35-14.25L41.35-14.25ZM64.25 0L64.25-33.85Q64.7-33.85 66.05-33.88 67.4-33.9 69.05-33.9 70.7-33.9 72.25-33.93 73.8-33.95 74.65-33.95L74.65-33.95Q81.05-33.95 84.25-31.5 87.45-29.05 87.45-24.25L87.45-24.25Q87.45-21.05 85.9-18.98 84.35-16.9 81.7-15.75L81.7-15.75Q83.2-14.9 84.35-13.5 85.5-12.1 86.55-10.13 87.6-8.15 88.67-5.6 89.75-3.05 91.05 0L91.05 0 82.2 0Q80.6-3.5 79.5-6.18 78.4-8.85 77.45-10.68 76.5-12.5 75.57-13.43 74.65-14.35 73.35-14.35L73.35-14.35 72.5-14.35 72.5 0 64.25 0ZM72.5-28.55L72.5-19.5 74.6-19.5Q76.35-19.5 77.57-20.58 78.8-21.65 78.8-23.95L78.8-23.95Q78.8-24.9 78.57-25.73 78.35-26.55 77.85-27.18 77.35-27.8 76.47-28.18 75.6-28.55 74.35-28.55L74.35-28.55 72.5-28.55ZM94.19 0L94.19-33.85 102.44-33.85 102.44 0 94.19 0ZM118.89-34.3L118.89-34.3Q120.69-34.3 122.37-34 124.04-33.7 125.49-33.25 126.94-32.8 128.12-32.23 129.29-31.65 130.14-31.05L130.14-31.05 127.24-25.55Q126.64-25.85 125.79-26.33 124.94-26.8 123.97-27.25 122.99-27.7 121.97-28 120.94-28.3 119.99-28.3L119.99-28.3Q118.24-28.3 117.39-27.58 116.54-26.85 116.54-25.75L116.54-25.75Q116.59-24.9 116.94-24.25 117.29-23.6 117.99-22.98 118.69-22.35 119.79-21.75 120.89-21.15 122.49-20.5L122.49-20.5Q124.49-19.65 125.99-18.75 127.49-17.85 128.47-16.7 129.44-15.55 129.94-14.1 130.44-12.65 130.44-10.75L130.44-10.75Q130.44-8.45 129.62-6.43 128.79-4.4 127.24-2.9 125.69-1.4 123.49-0.55 121.29 0.3 118.54 0.3L118.54 0.3Q116.59 0.3 114.82-0.05 113.04-0.4 111.54-0.95 110.04-1.5 108.79-2.13 107.54-2.75 106.64-3.3L106.64-3.3 109.34-9.2Q109.69-8.95 110.64-8.38 111.59-7.8 112.79-7.23 113.99-6.65 115.24-6.2 116.49-5.75 117.49-5.75L117.49-5.75Q119.59-5.75 120.57-6.73 121.54-7.7 121.54-9.5L121.54-9.5Q121.54-11.3 120.32-12.23 119.09-13.15 116.84-14.05L116.84-14.05Q114.64-14.95 112.94-15.95 111.24-16.95 110.07-18.2 108.89-19.45 108.27-21 107.64-22.55 107.64-24.6L107.64-24.6Q107.64-26.85 108.57-28.63 109.49-30.4 111.04-31.68 112.59-32.95 114.62-33.63 116.64-34.3 118.89-34.3ZM131.94-33.85L157.09-33.85 156.04-27.8 148.24-27.8 148.24 0 139.99 0 139.99-27.8 131.94-27.8 131.94-33.85ZM157.14 0L169.99-33.85 177.34-33.85 189.74 0 181.39 0 178.89-8.15 167.94-8.15 165.34 0 157.14 0ZM169.84-14.25L177.04-14.25Q176.54-15.7 176.01-17.28 175.49-18.85 175.01-20.35 174.54-21.85 174.14-23.18 173.74-24.5 173.44-25.4L173.44-25.4Q173.14-24.45 172.74-23.13 172.34-21.8 171.86-20.3 171.39-18.8 170.86-17.25 170.34-15.7 169.84-14.25L169.84-14.25ZM199.98-32L206.08-32 206.08 0 198.18 0 198.18-23.4Q196.88-22.4 195.43-21.6 193.98-20.8 192.38-20.25L192.38-20.25 189.63-25.35Q192.18-26.45 194.86-27.93 197.53-29.4 199.98-32L199.98-32ZM225.88-32.25Q232.08-32.25 235.28-28.03 238.48-23.8 238.48-16.25L238.48-16.25Q238.48-12.5 237.63-9.43 236.78-6.35 235.11-4.15 233.43-1.95 230.96-0.75 228.48 0.45 225.23 0.45L225.23 0.45Q218.98 0.45 215.76-3.68 212.53-7.8 212.53-15.45L212.53-15.45Q212.53-19.2 213.41-22.3 214.28-25.4 215.96-27.6 217.63-29.8 220.13-31.03 222.63-32.25 225.88-32.25L225.88-32.25ZM225.23-26.7Q222.93-26.7 221.98-24.03 221.03-21.35 221.03-16L221.03-16Q221.03-13.5 221.23-11.48 221.43-9.45 221.96-8.03 222.48-6.6 223.43-5.83 224.38-5.05 225.83-5.05L225.83-5.05Q228.08-5.05 229.01-7.7 229.93-10.35 229.93-15.65L229.93-15.65Q229.93-18.15 229.73-20.18 229.53-22.2 229.01-23.65 228.48-25.1 227.58-25.9 226.68-26.7 225.23-26.7L225.23-26.7ZM250.73-32L256.83-32 256.83 0 248.93 0 248.93-23.4Q247.63-22.4 246.18-21.6 244.73-20.8 243.13-20.25L243.13-20.25 240.38-25.35Q242.93-26.45 245.6-27.93 248.28-29.4 250.73-32L250.73-32Z" fill="#ffffff" data-fill-palette-color="primary"></path></g></svg></g></svg></g><g transform="matrix(1,0,0,1,75.54432,68.17425396597112)"><svg viewBox="0 0 244.43135999999998 16.88160019789734" height="16.88160019789734" width="244.43135999999998"><g transform="matrix(1,0,0,1,8,0)"><svg width="228.43135999999998" viewBox="2 -35.349998474121094 485.0400085449219 35.849998474121094" height="16.88160019789734" data-palette-color="#dcb986"><path d="M18.35 0L2.2 0Q2 0 2-0.25L2-0.25 2.05-34.55Q2.05-34.8 2.3-34.8L2.3-34.8 7.85-34.8Q8.1-34.8 8.1-34.55L8.1-34.55 8.05-6.15 18.35-6.15Q18.6-6.15 18.6-5.9L18.6-5.9 18.6-0.25Q18.6 0 18.35 0L18.35 0ZM38.2 0L22.05 0Q21.85 0 21.85-0.25L21.85-0.25 21.9-34.6Q21.9-34.8 22.1-34.8L22.1-34.8 38.15-34.8Q38.35-34.8 38.35-34.55L38.35-34.55 38.35-28.95Q38.35-28.75 38.15-28.75L38.15-28.75 27.9-28.75 27.9-20.95 38.15-20.95Q38.35-20.95 38.35-20.75L38.35-20.75 38.4-15.1Q38.4-14.9 38.2-14.9L38.2-14.9 27.9-14.9 27.9-6.15 38.2-6.15Q38.4-6.15 38.4-5.9L38.4-5.9 38.4-0.2Q38.4 0 38.2 0L38.2 0ZM40.64-0.25L40.64-0.25 46.84-34.6Q46.89-34.8 47.09-34.8L47.09-34.8 54.34-34.8Q54.55-34.8 54.59-34.6L54.59-34.6 60.55-0.25Q60.59 0 60.34 0L60.34 0 54.8 0Q54.59 0 54.55-0.25L54.55-0.25 53.99-3.9 47.2-3.9 46.64-0.25Q46.59 0 46.39 0L46.39 0 40.84 0Q40.64 0 40.64-0.25ZM50.45-23.3L48.2-9.25 52.99-9.25 50.95-23.3 50.64-25.15 50.45-23.3ZM69.54 0L63.89 0Q63.69 0 63.69-0.25L63.69-0.25 63.79-34.6Q63.79-34.8 63.99-34.8L63.99-34.8 74.09-34.8Q76.79-34.8 79.07-33.48 81.34-32.15 82.69-29.93 84.04-27.7 84.04-24.9L84.04-24.9Q84.04-23.05 83.49-21.58 82.94-20.1 82.19-19.07 81.44-18.05 80.84-17.55L80.84-17.55Q83.54-14.55 83.54-10.5L83.54-10.5 83.59-0.25Q83.59 0 83.34 0L83.34 0 77.69 0Q77.49 0 77.49-0.15L77.49-0.15 77.49-10.5Q77.49-12.3 76.22-13.63 74.94-14.95 73.09-14.95L73.09-14.95 69.79-14.95 69.74-0.25Q69.74 0 69.54 0L69.54 0ZM69.79-28.8L69.79-20.95 74.09-20.95Q75.64-20.95 76.84-22.1 78.04-23.25 78.04-24.9L78.04-24.9Q78.04-26.5 76.87-27.65 75.69-28.8 74.09-28.8L74.09-28.8 69.79-28.8ZM93.24 0L88.24 0Q87.84 0 87.84-0.35L87.84-0.35 87.79-34.4Q87.79-34.8 88.19-34.8L88.19-34.8 92.69-34.8 101.14-15.1 100.89-34.4Q100.89-34.8 101.34-34.8L101.34-34.8 106.29-34.8Q106.59-34.8 106.59-34.4L106.59-34.4 106.64-0.3Q106.64 0 106.39 0L106.39 0 101.99 0 93.34-18.4 93.69-0.4Q93.69 0 93.24 0L93.24 0ZM129.04 0L123.39 0Q123.19 0 123.19-0.25L123.19-0.25 123.19-28.75 116.69-28.75Q116.44-28.75 116.44-29L116.44-29 116.49-34.6Q116.49-34.8 116.69-34.8L116.69-34.8 135.69-34.8Q135.94-34.8 135.94-34.6L135.94-34.6 135.94-29Q135.94-28.75 135.74-28.75L135.74-28.75 129.19-28.75 129.24-0.25Q129.24 0 129.04 0L129.04 0ZM144.23 0L138.58 0Q138.38 0 138.38-0.25L138.38-0.25 138.43-34.6Q138.43-34.8 138.68-34.8L138.68-34.8 144.23-34.8Q144.48-34.8 144.48-34.6L144.48-34.6 144.43-21 151.93-21 151.93-34.6Q151.93-34.8 152.13-34.8L152.13-34.8 157.68-34.8Q157.93-34.8 157.93-34.6L157.93-34.6 158.03-0.25Q158.03 0 157.78 0L157.78 0 152.18 0Q151.93 0 151.93-0.25L151.93-0.25 151.93-14.95 144.43-14.95 144.43-0.25Q144.43 0 144.23 0L144.23 0ZM178.48 0L162.33 0Q162.13 0 162.13-0.25L162.13-0.25 162.18-34.6Q162.18-34.8 162.38-34.8L162.38-34.8 178.43-34.8Q178.63-34.8 178.63-34.55L178.63-34.55 178.63-28.95Q178.63-28.75 178.43-28.75L178.43-28.75 168.18-28.75 168.18-20.95 178.43-20.95Q178.63-20.95 178.63-20.75L178.63-20.75 178.68-15.1Q178.68-14.9 178.48-14.9L178.48-14.9 168.18-14.9 168.18-6.15 178.48-6.15Q178.68-6.15 178.68-5.9L178.68-5.9 178.68-0.2Q178.68 0 178.48 0L178.48 0ZM189.98-0.25L189.98-0.25 196.18-34.6Q196.23-34.8 196.43-34.8L196.43-34.8 203.68-34.8Q203.88-34.8 203.93-34.6L203.93-34.6 209.88-0.25Q209.93 0 209.68 0L209.68 0 204.13 0Q203.93 0 203.88-0.25L203.88-0.25 203.33-3.9 196.53-3.9 195.98-0.25Q195.93 0 195.73 0L195.73 0 190.18 0Q189.98 0 189.98-0.25ZM199.78-23.3L197.53-9.25 202.33-9.25 200.28-23.3 199.98-25.15 199.78-23.3ZM218.87 0L213.22 0Q213.02 0 213.02-0.25L213.02-0.25 213.12-34.6Q213.12-34.8 213.32-34.8L213.32-34.8 223.42-34.8Q226.12-34.8 228.4-33.48 230.67-32.15 232.02-29.93 233.37-27.7 233.37-24.9L233.37-24.9Q233.37-23.05 232.82-21.58 232.27-20.1 231.52-19.07 230.77-18.05 230.17-17.55L230.17-17.55Q232.87-14.55 232.87-10.5L232.87-10.5 232.92-0.25Q232.92 0 232.67 0L232.67 0 227.02 0Q226.82 0 226.82-0.15L226.82-0.15 226.82-10.5Q226.82-12.3 225.55-13.63 224.27-14.95 222.42-14.95L222.42-14.95 219.12-14.95 219.07-0.25Q219.07 0 218.87 0L218.87 0ZM219.12-28.8L219.12-20.95 223.42-20.95Q224.97-20.95 226.17-22.1 227.37-23.25 227.37-24.9L227.37-24.9Q227.37-26.5 226.2-27.65 225.02-28.8 223.42-28.8L223.42-28.8 219.12-28.8ZM246.77 0L241.12 0Q240.92 0 240.92-0.25L240.92-0.25 240.92-28.75 234.42-28.75Q234.17-28.75 234.17-29L234.17-29 234.22-34.6Q234.22-34.8 234.42-34.8L234.42-34.8 253.42-34.8Q253.67-34.8 253.67-34.6L253.67-34.6 253.67-29Q253.67-28.75 253.47-28.75L253.47-28.75 246.92-28.75 246.97-0.25Q246.97 0 246.77 0L246.77 0ZM272.77 0.5L272.77 0.5Q270.07 0.5 267.84-0.88 265.62-2.25 264.27-4.53 262.92-6.8 262.92-9.55L262.92-9.55 262.97-25.4Q262.97-28.15 264.29-30.4 265.62-32.65 267.87-34 270.12-35.35 272.77-35.35L272.77-35.35Q275.47-35.35 277.67-34 279.87-32.65 281.19-30.4 282.52-28.15 282.52-25.4L282.52-25.4 282.57-9.55Q282.57-6.8 281.24-4.53 279.92-2.25 277.69-0.88 275.47 0.5 272.77 0.5ZM272.77-5.55L272.77-5.55Q274.27-5.55 275.39-6.78 276.52-8 276.52-9.55L276.52-9.55 276.47-25.4Q276.47-27.05 275.42-28.2 274.37-29.35 272.77-29.35L272.77-29.35Q271.22-29.35 270.12-28.23 269.02-27.1 269.02-25.4L269.02-25.4 269.02-9.55Q269.02-7.9 270.12-6.73 271.22-5.55 272.77-5.55ZM292.21 0L286.61 0Q286.36 0 286.36-0.25L286.36-0.25 286.46-34.6Q286.46-34.8 286.66-34.8L286.66-34.8 302.66-34.8Q302.91-34.8 302.91-34.6L302.91-34.6 302.91-28.95Q302.91-28.75 302.71-28.75L302.71-28.75 292.46-28.75 292.46-21 302.71-21Q302.91-21 302.91-20.75L302.91-20.75 302.96-15.1Q302.96-14.9 302.71-14.9L302.71-14.9 292.46-14.9 292.46-0.25Q292.46 0 292.21 0L292.21 0ZM331.16 0L315.01 0Q314.81 0 314.81-0.25L314.81-0.25 314.86-34.6Q314.86-34.8 315.06-34.8L315.06-34.8 331.11-34.8Q331.31-34.8 331.31-34.55L331.31-34.55 331.31-28.95Q331.31-28.75 331.11-28.75L331.11-28.75 320.86-28.75 320.86-20.95 331.11-20.95Q331.31-20.95 331.31-20.75L331.31-20.75 331.36-15.1Q331.36-14.9 331.16-14.9L331.16-14.9 320.86-14.9 320.86-6.15 331.16-6.15Q331.36-6.15 331.36-5.9L331.36-5.9 331.36-0.2Q331.36 0 331.16 0L331.16 0ZM344.01 0.5L344.01 0.5Q341.31 0.5 339.08-0.88 336.86-2.25 335.53-4.53 334.21-6.8 334.21-9.55L334.21-9.55 334.21-11.85Q334.21-12.1 334.46-12.1L334.46-12.1 340.06-12.1Q340.26-12.1 340.26-11.85L340.26-11.85 340.26-9.55Q340.26-7.9 341.36-6.73 342.46-5.55 344.01-5.55L344.01-5.55Q345.56-5.55 346.66-6.75 347.76-7.95 347.76-9.55L347.76-9.55Q347.76-11.4 345.36-12.75L345.36-12.75Q344.56-13.2 342.86-14.15 341.16-15.1 339.66-15.95L339.66-15.95Q336.91-17.55 335.58-19.98 334.26-22.4 334.26-25.45L334.26-25.45Q334.26-28.25 335.61-30.48 336.96-32.7 339.18-34 341.41-35.3 344.01-35.3L344.01-35.3Q346.66-35.3 348.88-33.98 351.11-32.65 352.43-30.43 353.76-28.2 353.76-25.45L353.76-25.45 353.76-21.35Q353.76-21.15 353.56-21.15L353.56-21.15 347.96-21.15Q347.76-21.15 347.76-21.35L347.76-21.35 347.71-25.45Q347.71-27.2 346.61-28.3 345.51-29.4 344.01-29.4L344.01-29.4Q342.46-29.4 341.36-28.23 340.26-27.05 340.26-25.45L340.26-25.45Q340.26-23.8 340.96-22.7 341.66-21.6 343.51-20.6L343.51-20.6Q343.76-20.45 344.48-20.08 345.21-19.7 346.06-19.23 346.91-18.75 347.58-18.4 348.26-18.05 348.41-17.95L348.41-17.95Q350.91-16.55 352.36-14.53 353.81-12.5 353.81-9.55L353.81-9.55Q353.81-6.7 352.48-4.42 351.16-2.15 348.93-0.83 346.71 0.5 344.01 0.5ZM363.15 0L357.55 0Q357.3 0 357.3-0.25L357.3-0.25 357.4-34.6Q357.4-34.8 357.6-34.8L357.6-34.8 367.2-34.8Q371.8-34.8 374.48-32 377.15-29.2 377.15-24.4L377.15-24.4Q377.15-20.85 375.75-18.25 374.35-15.65 372.1-14.25 369.85-12.85 367.2-12.85L367.2-12.85 363.4-12.85 363.4-0.25Q363.4 0 363.15 0L363.15 0ZM363.4-28.8L363.4-18.9 367.2-18.9Q368.8-18.9 369.98-20.43 371.15-21.95 371.15-24.4L371.15-24.4Q371.15-26.35 370.1-27.6 369.05-28.85 367.2-28.85L367.2-28.85 363.4-28.8ZM386 0L380.35 0Q380.15 0 380.15-0.25L380.15-0.25 380.25-34.6Q380.25-34.8 380.45-34.8L380.45-34.8 390.55-34.8Q393.25-34.8 395.53-33.48 397.8-32.15 399.15-29.93 400.5-27.7 400.5-24.9L400.5-24.9Q400.5-23.05 399.95-21.58 399.4-20.1 398.65-19.07 397.9-18.05 397.3-17.55L397.3-17.55Q400-14.55 400-10.5L400-10.5 400.05-0.25Q400.05 0 399.8 0L399.8 0 394.15 0Q393.95 0 393.95-0.15L393.95-0.15 393.95-10.5Q393.95-12.3 392.68-13.63 391.4-14.95 389.55-14.95L389.55-14.95 386.25-14.95 386.2-0.25Q386.2 0 386 0L386 0ZM386.25-28.8L386.25-20.95 390.55-20.95Q392.1-20.95 393.3-22.1 394.5-23.25 394.5-24.9L394.5-24.9Q394.5-26.5 393.33-27.65 392.15-28.8 390.55-28.8L390.55-28.8 386.25-28.8ZM420.6 0L404.45 0Q404.25 0 404.25-0.25L404.25-0.25 404.3-34.6Q404.3-34.8 404.5-34.8L404.5-34.8 420.55-34.8Q420.75-34.8 420.75-34.55L420.75-34.55 420.75-28.95Q420.75-28.75 420.55-28.75L420.55-28.75 410.3-28.75 410.3-20.95 420.55-20.95Q420.75-20.95 420.75-20.75L420.75-20.75 420.8-15.1Q420.8-14.9 420.6-14.9L420.6-14.9 410.3-14.9 410.3-6.15 420.6-6.15Q420.8-6.15 420.8-5.9L420.8-5.9 420.8-0.2Q420.8 0 420.6 0L420.6 0ZM433.45 0.5L433.45 0.5Q430.75 0.5 428.52-0.88 426.3-2.25 424.97-4.53 423.65-6.8 423.65-9.55L423.65-9.55 423.65-11.85Q423.65-12.1 423.9-12.1L423.9-12.1 429.5-12.1Q429.7-12.1 429.7-11.85L429.7-11.85 429.7-9.55Q429.7-7.9 430.8-6.73 431.9-5.55 433.45-5.55L433.45-5.55Q435-5.55 436.1-6.75 437.2-7.95 437.2-9.55L437.2-9.55Q437.2-11.4 434.8-12.75L434.8-12.75Q434-13.2 432.3-14.15 430.6-15.1 429.1-15.95L429.1-15.95Q426.35-17.55 425.02-19.98 423.7-22.4 423.7-25.45L423.7-25.45Q423.7-28.25 425.05-30.48 426.4-32.7 428.62-34 430.85-35.3 433.45-35.3L433.45-35.3Q436.1-35.3 438.32-33.98 440.55-32.65 441.87-30.43 443.2-28.2 443.2-25.45L443.2-25.45 443.2-21.35Q443.2-21.15 443-21.15L443-21.15 437.4-21.15Q437.2-21.15 437.2-21.35L437.2-21.35 437.15-25.45Q437.15-27.2 436.05-28.3 434.95-29.4 433.45-29.4L433.45-29.4Q431.9-29.4 430.8-28.23 429.7-27.05 429.7-25.45L429.7-25.45Q429.7-23.8 430.4-22.7 431.1-21.6 432.95-20.6L432.95-20.6Q433.2-20.45 433.92-20.08 434.65-19.7 435.5-19.23 436.35-18.75 437.02-18.4 437.7-18.05 437.85-17.95L437.85-17.95Q440.35-16.55 441.8-14.53 443.25-12.5 443.25-9.55L443.25-9.55Q443.25-6.7 441.92-4.42 440.6-2.15 438.37-0.83 436.15 0.5 433.45 0.5ZM454.69 0.5L454.69 0.5Q451.99 0.5 449.77-0.88 447.54-2.25 446.22-4.53 444.89-6.8 444.89-9.55L444.89-9.55 444.89-11.85Q444.89-12.1 445.14-12.1L445.14-12.1 450.74-12.1Q450.94-12.1 450.94-11.85L450.94-11.85 450.94-9.55Q450.94-7.9 452.04-6.73 453.14-5.55 454.69-5.55L454.69-5.55Q456.24-5.55 457.34-6.75 458.44-7.95 458.44-9.55L458.44-9.55Q458.44-11.4 456.04-12.75L456.04-12.75Q455.24-13.2 453.54-14.15 451.84-15.1 450.34-15.95L450.34-15.95Q447.59-17.55 446.27-19.98 444.94-22.4 444.94-25.45L444.94-25.45Q444.94-28.25 446.29-30.48 447.64-32.7 449.87-34 452.09-35.3 454.69-35.3L454.69-35.3Q457.34-35.3 459.57-33.98 461.79-32.65 463.12-30.43 464.44-28.2 464.44-25.45L464.44-25.45 464.44-21.35Q464.44-21.15 464.24-21.15L464.24-21.15 458.64-21.15Q458.44-21.15 458.44-21.35L458.44-21.35 458.39-25.45Q458.39-27.2 457.29-28.3 456.19-29.4 454.69-29.4L454.69-29.4Q453.14-29.4 452.04-28.23 450.94-27.05 450.94-25.45L450.94-25.45Q450.94-23.8 451.64-22.7 452.34-21.6 454.19-20.6L454.19-20.6Q454.44-20.45 455.17-20.08 455.89-19.7 456.74-19.23 457.59-18.75 458.27-18.4 458.94-18.05 459.09-17.95L459.09-17.95Q461.59-16.55 463.04-14.53 464.49-12.5 464.49-9.55L464.49-9.55Q464.49-6.7 463.17-4.42 461.84-2.15 459.62-0.83 457.39 0.5 454.69 0.5ZM477.24 0.5L477.24 0.5Q474.54 0.5 472.32-0.88 470.09-2.25 468.74-4.53 467.39-6.8 467.39-9.55L467.39-9.55 467.44-25.4Q467.44-28.15 468.77-30.4 470.09-32.65 472.34-34 474.59-35.35 477.24-35.35L477.24-35.35Q479.94-35.35 482.14-34 484.34-32.65 485.67-30.4 486.99-28.15 486.99-25.4L486.99-25.4 487.04-9.55Q487.04-6.8 485.72-4.53 484.39-2.25 482.17-0.88 479.94 0.5 477.24 0.5ZM477.24-5.55L477.24-5.55Q478.74-5.55 479.87-6.78 480.99-8 480.99-9.55L480.99-9.55 480.94-25.4Q480.94-27.05 479.89-28.2 478.84-29.35 477.24-29.35L477.24-29.35Q475.69-29.35 474.59-28.23 473.49-27.1 473.49-25.4L473.49-25.4 473.49-9.55Q473.49-7.9 474.59-6.73 475.69-5.55 477.24-5.55Z" opacity="1" transform="matrix(1,0,0,1,0,0)" fill="#ffffff" class="undefined-text-1" data-fill-palette-color="secondary" id="text-1"></path></svg></g></svg></g></svg></g></svg></g><g transform="matrix(1,0,0,1,93.54445151102097,0)"><svg viewBox="0 0 208.43109697795805 208.43109697795805" height="208.43109697795805" width="208.43109697795805"><g><svg></svg></g><g id="icon-0"><svg viewBox="0 0 208.43109697795805 208.43109697795805" height="208.43109697795805" width="208.43109697795805"><g><path d="M0 104.216c0-57.557 46.659-104.216 104.216-104.216 57.557 0 104.216 46.659 104.215 104.216 0 57.557-46.659 104.216-104.215 104.215-57.557 0-104.216-46.659-104.216-104.215zM104.216 203.457c54.81 0 99.242-44.432 99.241-99.241 0-54.81-44.432-99.242-99.241-99.242-54.81 0-99.242 44.432-99.242 99.242 0 54.81 44.432 99.242 99.242 99.241z" data-fill-palette-color="tertiary" fill="#fce44d" stroke="transparent"></path></g><g transform="matrix(1,0,0,1,62.269626948611176,42.68300579511982)"><svg viewBox="0 0 83.8918430807357 123.06508538771841" height="123.06508538771841" width="83.8918430807357"><g><svg xmlns="http://www.w3.org/2000/svg" xmlns:xlink="http://www.w3.org/1999/xlink" version="1.1" x="0" y="0" viewBox="22.036081314086914 9.858999252319336 55.35497283935547 81.20294189453125" enable-background="new 0 0 100 100" xml:space="preserve" height="123.06508538771841" width="83.8918430807357" class="icon-a-0" data-fill-palette-color="accent" id="a-0"><path fill="none" d="M26.499 18.3c1.587 2.066 6.308 4.479 19.77 4.242 0.241-0.004 23.877-0.317 27.11-4.805 0.309-0.428 0.389-0.871 0.251-1.351-4.06-5.424-19.675-5.711-22.888-5.711-0.627 0-0.985 0.008-0.988 0.008-20.928 0.628-23.706 4.89-23.915 5.282l-0.053 0.429C25.785 16.818 25.898 17.517 26.499 18.3zM30.843 19.194c0.045-0.765 0.934-1.137 2.714-1.137 0.218 0 0.443 0.006 0.669 0.02 1.233 0.073 3.293 0.366 3.226 1.51-0.046 0.763-0.932 1.136-2.711 1.136-0.219 0-0.444-0.007-0.671-0.019C32.836 20.631 30.776 20.336 30.843 19.194z"></path><path fill="none" d="M46.28 23.356c-0.608 0.012-1.201 0.016-1.775 0.016-12.509 0-17.072-2.479-18.681-4.613-0.107-0.142-0.197-0.282-0.281-0.42l-0.438 3.494-0.003 0.005c-0.069 0.594-0.151 3.677 5.243 5.694 1.633 0.61 7.817 2.212 16.682 2.283 6.167 0.048 13.713-0.634 17.948-1.622 2.269-0.533 8.353-2.286 9.836-4.078l-0.64-6.103c-0.041 0.065-0.082 0.136-0.13 0.2C70.57 23.032 47.271 23.345 46.28 23.356z"></path><path fill="none" d="M47.65 30.634c-0.212 0-0.422-0.002-0.63-0.003-8.034-0.062-14.545-1.431-16.961-2.333-4.429-1.657-5.51-4.064-5.735-5.507-1.15 1.545-1.632 2.97-1.429 4.243 0.268 1.68 1.653 2.515 1.666 2.522 7.086 4.373 21.635 4.713 25.924 4.713 0.849 0 1.335-0.014 1.339-0.014 20.812-1.094 23.363-4.229 23.387-4.261l0.035-0.056 0.042-0.027c0.844-0.702 1.276-1.479 1.282-2.314 0.01-1.207-0.846-2.274-1.312-2.764-2.247 2.286-9.764 4.073-10.099 4.153C61.014 29.955 53.749 30.634 47.65 30.634z"></path><path d="M25.896 30.997l0.032 0.216c7.667 3.575 20.545 3.872 24.557 3.872 0.867 0 1.361-0.015 1.373-0.015 14.1-0.74 19.971-2.376 22.393-3.499l0.068-0.574C74.318 30.997 50.107 39.34 25.896 30.997z" fill="#ffffff" data-fill-palette-color="accent"></path><path d="M25.103 21.838c0.005-0.051 0.012-0.087 0.015-0.099l-0.4-0.08 0.399 0.084-0.799-0.169c-0.012 0.057-0.101 0.526 0.007 1.217 0.211-0.283 0.442-0.57 0.699-0.864L25.103 21.838z" fill="#ffffff" data-fill-palette-color="accent"></path><path d="M74.968 24.548c0.005 0.005 0.124 0.107 0.292 0.286 0.116-0.117 0.219-0.237 0.305-0.358L74.9 24.001c-0.027 0.038-0.06 0.077-0.092 0.114l0.035 0.328L74.968 24.548z" fill="#ffffff" data-fill-palette-color="accent"></path><g fill="#000000" data-fill-palette-color="accent"><path d="M50.485 35.085c-4.012 0-16.891-0.297-24.557-3.872l8.31 54.732c0 0 3.52 5.623 19.17 5.08 0 0 12.021-0.727 14.562-6.166l6.279-53.289c-2.421 1.123-8.292 2.759-22.393 3.499C51.846 35.07 51.352 35.085 50.485 35.085z" fill="#ffffff" data-fill-palette-color="accent"></path><path d="M75.623 24.042l-0.754-7.194-0.033-0.066c-3.236-6.424-19.26-6.923-24.094-6.923-0.643 0-1.008 0.01-1.011 0.01-22.693 0.679-24.606 5.646-24.677 5.856l-0.001 0.012 0.779 0.236-0.39-0.118 0.391 0.116v0.002c-0.007 0.025-0.046 0.177-0.047 0.422l0.053-0.429c0.209-0.393 2.987-4.654 23.915-5.282 0.003 0 0.361-0.008 0.988-0.008 3.213 0 18.828 0.287 22.888 5.711-0.005-0.021-0.009-0.041-0.015-0.06l0.775-0.249c0.219 0.681 0.145 1.33-0.22 1.935l0.64 6.103c0.031-0.037 0.063-0.076 0.092-0.114l0.664 0.475c-0.086 0.121-0.189 0.241-0.305 0.358 0.463 0.489 1.319 1.557 1.311 2.764-0.006 0.835-0.438 1.612-1.282 2.314l-0.042 0.027-0.035 0.056c-0.023 0.032-2.572 3.167-23.387 4.261-0.003 0-0.49 0.014-1.339 0.014-4.29 0-18.838-0.34-25.924-4.713-0.013-0.008-1.398-0.843-1.666-2.522-0.203-1.273 0.279-2.698 1.429-4.243-0.108-0.69-0.019-1.16-0.007-1.217l0.799 0.169-0.399-0.084 0.4 0.08c-0.002 0.012-0.009 0.048-0.015 0.099l0.003-0.005 0.438-3.494c-0.47-0.784-0.574-1.488-0.569-1.968l-0.646 5.113c-1.762 2.037-2.515 3.945-2.238 5.679 0.327 2.054 1.987 3.055 2.05 3.094 0.555 0.342 1.154 0.659 1.789 0.956l-0.032-0.216c24.211 8.343 48.421 0 48.421 0l-0.067 0.574c1.065-0.494 1.465-0.891 1.601-1.064 1.012-0.854 1.528-1.83 1.537-2.902C77.4 25.863 76.05 24.444 75.623 24.042z" fill="#ffffff" data-fill-palette-color="accent"></path><path d="M34.069 20.704c0.227 0.012 0.452 0.019 0.671 0.019 1.779 0 2.666-0.373 2.711-1.136 0.068-1.144-1.992-1.437-3.226-1.51-0.226-0.014-0.451-0.02-0.669-0.02-1.78 0-2.668 0.372-2.714 1.137C30.776 20.336 32.836 20.631 34.069 20.704z" fill="#ffffff" data-fill-palette-color="accent"></path><path d="M64.975 28.193c-4.234 0.988-11.781 1.67-17.948 1.622-8.865-0.071-15.048-1.673-16.682-2.283-5.394-2.018-5.312-5.101-5.243-5.694l-0.079 0.089c-0.257 0.294-0.488 0.581-0.699 0.864 0.225 1.442 1.306 3.85 5.735 5.507 2.417 0.902 8.928 2.271 16.961 2.333 0.208 0.001 0.418 0.003 0.63 0.003 6.098 0 13.364-0.679 17.511-1.646 0.334-0.08 7.851-1.867 10.099-4.153-0.169-0.179-0.287-0.281-0.292-0.286l-0.122-0.104-0.035-0.328C73.327 25.907 67.243 27.66 64.975 28.193z" fill="#ffffff" data-fill-palette-color="accent"></path><path d="M44.505 23.372c0.574 0 1.167-0.004 1.775-0.016 0.991-0.012 24.291-0.324 27.761-5.144 0.048-0.064 0.089-0.135 0.13-0.2l-0.097-0.931c-0.127-0.241-0.276-0.472-0.444-0.695 0.138 0.479 0.058 0.923-0.251 1.351-3.232 4.487-26.87 4.801-27.11 4.805-13.462 0.237-18.182-2.176-19.77-4.242-0.601-0.783-0.714-1.481-0.713-1.905l-0.243 1.944c0.083 0.138 0.173 0.278 0.281 0.42C27.433 20.894 31.996 23.372 44.505 23.372z" fill="#ffffff" data-fill-palette-color="accent"></path></g><path d="M25.052 15.736c-0.007 0.021-0.074 0.26-0.078 0.635l0.08-0.635H25.052z" fill="#ffffff" data-fill-palette-color="accent"></path><polygon points="25.442,15.854 25.833,15.973 25.833,15.971 " fill="#ffffff" data-fill-palette-color="accent"></polygon><path d="M25.833 15.973L25.833 15.973 25.833 15.973z" fill="#ffffff" data-fill-palette-color="accent"></path><path d="M25.543 18.339l0.243-1.944c0.001-0.245 0.04-0.396 0.046-0.422l-0.779-0.236-0.08 0.635C24.969 16.851 25.073 17.555 25.543 18.339z" fill="#ffffff" data-fill-palette-color="accent"></path><path d="M74.171 18.013c0.363-0.604 0.438-1.254 0.22-1.935l-0.775 0.249c0.005 0.019 0.009 0.039 0.015 0.06 0.168 0.224 0.317 0.454 0.444 0.695L74.171 18.013z" fill="#ffffff" data-fill-palette-color="accent"></path></svg></g></svg></g></svg></g></svg></g><g></g></svg></g><defs></defs></svg><rect width="305.9906175041052" height="247.2" fill="none" stroke="none" visibility="hidden"></rect></g></svg></g></svg>